<svg width="512" height="512" xmlns="http://www.w3.org/2000/svg">

 <g>
  <title>background</title>
  <rect fill="none" id="canvas_background" height="402" width="582" y="-1" x="-1"/>
 </g>
 <g>
  <title>Layer 1</title>
  <path id="svg_2" fill="#3498db" d="m434.5,72.3l0,339.7c0,33.6 -27.5,61.1 -61,61.1l-246.8,0c-5.6,0 -11,-1 -16.2,-2.5c7.8,23.7 30,41.1 56.2,41.1l249.9,0c32.7,0 59.5,-26.8 59.5,-59.5l0,-323.4c0,-26.5 -17.6,-48.8 -41.6,-56.5z"/>
  <path id="svg_3" fill="#3498db" d="m345.2,0l-249.8,0c-32.7,0 -59.5,26.8 -59.5,59.5l0,323.5c0,32.7 26.8,59.5 59.5,59.5l249.9,0c32.7,0 59.5,-26.8 59.5,-59.5l0,-323.5c-0.1,-32.7 -26.8,-59.5 -59.6,-59.5zm19,349.8c0,25.7 -21.1,46.8 -46.8,46.8l-196.5,0c-25.7,0 -46.8,-21.1 -46.8,-46.8l0,-254.4c0,-25.7 21.1,-46.8 46.8,-46.8l196.6,0c25.7,0 46.8,21.1 46.8,46.8l0,254.4l-0.1,0z"/>
  <path id="svg_5" fill="#3498db" d="m319.8,117.5l-129.3,0c-5.4,0 -9.8,-4.4 -9.8,-9.8l0,-0.7c0,-5.4 4.4,-9.8 9.8,-9.8l129.3,0c5.4,0 9.8,4.4 9.8,9.8l0,0.7c0.1,5.4 -4.4,9.8 -9.8,9.8z"/>
  <path id="svg_6" fill="#3498db" d="m319.8,175.2l-199.4,0c-5.4,0 -9.8,-4.4 -9.8,-9.8l0,-0.7c0,-5.4 4.4,-9.8 9.8,-9.8l199.5,0c5.4,0 9.8,4.4 9.8,9.8l0,0.7c0,5.3 -4.5,9.8 -9.9,9.8z"/>
  <path id="svg_7" fill="#3498db" d="m319.8,232.8l-199.4,0c-5.4,0 -9.8,-4.4 -9.8,-9.8l0,-0.7c0,-5.4 4.4,-9.8 9.8,-9.8l199.5,0c5.4,0 9.8,4.4 9.8,9.8l0,0.7c0,5.4 -4.5,9.8 -9.9,9.8z"/>
  <path id="svg_8" fill="#3498db" d="m319.8,290.5l-199.4,0c-5.4,0 -9.8,-4.4 -9.8,-9.8l0,-0.7c0,-5.4 4.4,-9.8 9.8,-9.8l199.5,0c5.4,0 9.8,4.4 9.8,9.8l0,0.7c0,5.4 -4.5,9.8 -9.9,9.8z"/>
  <path id="svg_9" fill="#3498db" d="m319.8,348.2l-199.4,0c-5.4,0 -9.8,-4.4 -9.8,-9.8l0,-0.7c0,-5.4 4.4,-9.8 9.8,-9.8l199.5,0c5.4,0 9.8,4.4 9.8,9.8l0,0.7c0,5.3 -4.5,9.8 -9.9,9.8z"/>
 </g>
</svg>