<svg width="200" height="200" xmlns="http://www.w3.org/2000/svg">

 <g>
  <title>background</title>
  <rect fill="none" id="canvas_background" height="402" width="582" y="-1" x="-1"/>
 </g>
 <g>
  <title>Layer 1</title>
  <path id="svg_1" fill="#009cea" d="m200,51.813l0,34.62c-1.312,5.54 -4.219,10.628 -8.513,14.755c-6.04,5.797 -14.09,8.992 -22.655,8.992l-53.852,0l0,-10.54c0,-4.454 -3.645,-8.098 -8.099,-8.098l-13.763,0c-4.452,0 -8.096,3.645 -8.096,8.098l0,10.54l-53.855,0c-8.565,0 -16.613,-3.195 -22.655,-8.992c-4.298,-4.121 -7.2,-9.213 -8.512,-14.751l0,-34.624c0,-7.463 6.11,-13.573 13.574,-13.573l172.854,0c7.463,0 13.572,6.11 13.572,13.573zm-93.118,77.004c0.713,0 1.308,-0.596 1.308,-1.308l0,-10.542l0,-6.787l0,-10.54c0,-0.712 -0.595,-1.312 -1.308,-1.312l-13.764,0c-0.71,0 -1.312,0.6 -1.312,1.312l0,10.54l0,6.787l0,10.542c0,0.712 0.602,1.308 1.312,1.308l13.764,0zm89.308,-22.734c-7.316,7.017 -17.026,10.885 -27.358,10.885l-53.852,0l0,10.542c0,4.448 -3.645,8.095 -8.099,8.095l-13.763,0c-4.452,0 -8.096,-3.646 -8.096,-8.095l0,-10.542l-53.855,0c-10.33,0 -20.042,-3.868 -27.357,-10.885c-1.39,-1.335 -2.662,-2.752 -3.81,-4.239l0,73.489c0,7.469 6.11,13.574 13.574,13.574l172.854,0c7.463,0 13.572,-6.105 13.572,-13.574l0,-73.489c-1.15,1.487 -2.417,2.904 -3.81,4.239zm-64.894,-91.014c-2.652,-2.652 -6.127,-3.977 -9.599,-3.977l-43.39,0c-3.474,0 -6.951,1.325 -9.601,3.977c-2.648,2.65 -3.974,6.124 -3.974,9.597l0,6.787l11.535,0l0,-6.787c0,-0.385 0.105,-0.948 0.6,-1.44c0.49,-0.492 1.052,-0.599 1.44,-0.599l43.391,0c0.382,0 0.946,0.107 1.437,0.599c0.494,0.492 0.599,1.055 0.599,1.44l0,6.787l11.535,0l0,-6.787c-0.001,-3.473 -1.325,-6.946 -3.973,-9.597z"/>
 </g>
</svg>