<svg id="e39827ac-6823-45c4-ba6a-b4eb20446e2c" xmlns="http://www.w3.org/2000/svg" width="692" height="499.87671" viewBox="0 0 692 499.87671"><path d="M945,696.10474H255a1,1,0,0,1,0-2H945a1,1,0,0,1,0,2Z" transform="translate(-254 -200.06165)" fill="#ccc"></path><path d="M876.70435,521.703h-406a6.5,6.5,0,0,0,0,13h11.5v155.5a6.5,6.5,0,0,0,13,0l.09878-155.5H851.20435v155.5a6.5,6.5,0,0,0,13,0V538.13037l1.89111-3.42737h10.60889a6.5,6.5,0,0,0,0-13Z" transform="translate(-254 -200.06165)" fill="#ccc"></path><path d="M695.79407,525.10474H572.81226a8.992,8.992,0,0,1-8.98182-8.98182v-67.7091a8.992,8.992,0,0,1,8.98182-8.98181H695.79407a8.992,8.992,0,0,1,8.98181,8.98181v67.7091A8.992,8.992,0,0,1,695.79407,525.10474Z" transform="translate(-254 -200.06165)" fill="#3f3d56"></path><path d="M695.7934,446.34473H572.81293a2.0742,2.0742,0,0,0-2.06983,2.07v67.71a2.07422,2.07422,0,0,0,2.06983,2.07H695.7934a2.07421,2.07421,0,0,0,2.06982-2.07v-67.71A2.07422,2.07422,0,0,0,695.7934,446.34473Z" transform="translate(-254 -200.06165)" fill="#fff"></path><path d="M644.792,494.28284s-14.72229-3.39246-22.81952,2.827,10.30561,20.35483,10.30561,20.35483Z" transform="translate(-254 -200.06165)" fill="#2f2e41"></path><circle cx="381.0242" cy="273.92426" r="13.88708" fill="#a0616a"></circle><path d="M624.28577,454.49179a9.898,9.898,0,0,1,9.1264-4.85577,19.39629,19.39629,0,0,1,5.5155,1.54391l9.07825,3.54126c2.34912.91635,4.92194,2.03879,5.94128,4.34509.94611,2.14057.24024,4.61268-.4743,6.84122l-3.39655,10.59329a32.24534,32.24534,0,0,0-1.92474-6.99768,10.83494,10.83494,0,0,0-4.70441-5.36392c-2.35809-1.20969-5.13745-1.18466-7.78466-1.05725-3.74915.18042-7.8255.65741-10.48932,3.30182a10.89529,10.89529,0,0,0-2.76459,5.39929,32.49988,32.49988,0,0,0-.57971,6.11163,50.66879,50.66879,0,0,1-3.86939-8.29541,20.52566,20.52566,0,0,1-1.43768-6.71481,9.444,9.444,0,0,1,2.16455-6.387,6.19532,6.19532,0,0,1,6.23053-1.96094Z" transform="translate(-254 -200.06165)" fill="#2f2e41"></path><path d="M668.183,506.32471a2.4718,2.4718,0,0,0-2.06982-1.79.85993.85993,0,0,0-.1001-.06l-20.73138-11.61819a2.63677,2.63677,0,0,0-3.52832.9082l-5.66992,9.18-8.54-8.54-.13575-.1358a2.63649,2.63649,0,0,0-3.37646-.29529l-17.03809,11.93109c-.02978,0-.06.01-.08984.01a3.63264,3.63264,0,0,0-3.03027,3.39l-.43994,8.89h68.04Z" transform="translate(-254 -200.06165)" fill="#6c63ff"></path><path d="M706.15771,516.81384H693.0304a1.38182,1.38182,0,0,0-1.38184-1.38183h-4.14545a1.38181,1.38181,0,0,0-1.38183,1.38183h-4.14545A1.38181,1.38181,0,0,0,680.594,515.432h-4.14538a1.38181,1.38181,0,0,0-1.38184,1.38183h-4.14544a1.38182,1.38182,0,0,0-1.38184-1.38183H665.394a1.38181,1.38181,0,0,0-1.38183,1.38183h-4.14545A1.38187,1.38187,0,0,0,658.485,515.432h-4.14545a1.38181,1.38181,0,0,0-1.38184,1.38183h-4.14544a1.38182,1.38182,0,0,0-1.38184-1.38183H643.285a1.38181,1.38181,0,0,0-1.38183,1.38183h-4.14545a1.38181,1.38181,0,0,0-1.38184-1.38183h-4.14544a1.38181,1.38181,0,0,0-1.38184,1.38183h-4.14545a1.38181,1.38181,0,0,0-1.38183-1.38183h-4.14545a1.38181,1.38181,0,0,0-1.38183,1.38183h-4.14539a1.38181,1.38181,0,0,0-1.38184-1.38183h-4.14544a1.38181,1.38181,0,0,0-1.38184,1.38183h-4.14544a1.38182,1.38182,0,0,0-1.38184-1.38183h-4.14545a1.38181,1.38181,0,0,0-1.38183,1.38183h-4.14545a1.38181,1.38181,0,0,0-1.38184-1.38183h-4.14544a1.38181,1.38181,0,0,0-1.38184,1.38183H582.485a1.38182,1.38182,0,0,0-1.38184-1.38183H576.9577a1.38181,1.38181,0,0,0-1.38183,1.38183H562.44861a4.14546,4.14546,0,0,0,0,8.2909h143.7091a4.14545,4.14545,0,0,0,0-8.2909Z" transform="translate(-254 -200.06165)" fill="#3f3d56"></path><path d="M541.079,492.73993v27.52569H472.11682a13.77119,13.77119,0,1,1-.95761-27.52572q.47863-.01666.95761,0Z" transform="translate(-254 -200.06165)" fill="#f2f2f2"></path><path d="M542.773,520.05389a1.05908,1.05908,0,0,1-1.05865,1.05866H470.88855a14.50394,14.50394,0,1,1,0-29.00787h70.82581a1.05869,1.05869,0,1,1,0,2.11737H470.88855a12.38658,12.38658,0,0,0,0,24.77313h70.82581A1.05908,1.05908,0,0,1,542.773,520.05389Z" transform="translate(-254 -200.06165)" fill="#6c63ff"></path><path d="M541.079,499.092h-74.1077a.21174.21174,0,0,1-.0039-.42346H541.079a.21174.21174,0,0,1,0,.42346Z" transform="translate(-254 -200.06165)" fill="#ccc"></path><path d="M541.079,504.17371h-74.1077a.21174.21174,0,0,1-.0039-.42347H541.079a.21174.21174,0,0,1,0,.42347Z" transform="translate(-254 -200.06165)" fill="#ccc"></path><path d="M541.079,509.25537h-74.1077a.21174.21174,0,0,1-.0039-.42346H541.079a.21174.21174,0,0,1,0,.42346Z" transform="translate(-254 -200.06165)" fill="#ccc"></path><path d="M541.079,514.337h-74.1077a.21174.21174,0,0,1-.0039-.42347H541.079a.21174.21174,0,0,1,0,.42347Z" transform="translate(-254 -200.06165)" fill="#ccc"></path><path d="M528.079,463.73993v27.52573H459.11682a13.77119,13.77119,0,0,1-.95761-27.52573q.47863-.01667.95761,0Z" transform="translate(-254 -200.06165)" fill="#f2f2f2"></path><path d="M529.773,491.05392a1.0591,1.0591,0,0,1-1.05865,1.05869H457.88855a14.50394,14.50394,0,1,1,0-29.00787h70.82581a1.05869,1.05869,0,1,1,0,2.11737H457.88855a12.38658,12.38658,0,0,0,0,24.77316h70.82581A1.05909,1.05909,0,0,1,529.773,491.05392Z" transform="translate(-254 -200.06165)" fill="#3f3d56"></path><path d="M528.079,470.092h-74.1077a.21174.21174,0,0,1-.0039-.42346H528.079a.21174.21174,0,0,1,0,.42346Z" transform="translate(-254 -200.06165)" fill="#ccc"></path><path d="M528.079,475.17371h-74.1077a.21174.21174,0,0,1-.0039-.42347H528.079a.21174.21174,0,0,1,0,.42347Z" transform="translate(-254 -200.06165)" fill="#ccc"></path><path d="M528.079,480.25537h-74.1077a.21174.21174,0,0,1-.0039-.42346H528.079a.21174.21174,0,0,1,0,.42346Z" transform="translate(-254 -200.06165)" fill="#ccc"></path><path d="M528.079,485.337h-74.1077a.21174.21174,0,0,1-.0039-.42347H528.079a.21174.21174,0,0,1,0,.42347Z" transform="translate(-254 -200.06165)" fill="#ccc"></path><path d="M608.30316,618.10474v-24a4.00011,4.00011,0,0,0-4-4h-91a4.0001,4.0001,0,0,0-4,4v24Z" transform="translate(-254 -200.06165)" fill="#ccc"></path><rect x="255.30315" y="427.04309" width="99.00002" height="31" fill="#ccc"></rect><path d="M509.30316,667.10474v24a4.00011,4.00011,0,0,0,4,4h91a4.00012,4.00012,0,0,0,4-4v-24Z" transform="translate(-254 -200.06165)" fill="#ccc"></path><circle cx="304.30316" cy="405.04309" r="3" fill="#fff"></circle><circle cx="304.30316" cy="445.04309" r="3" fill="#fff"></circle><circle cx="304.46393" cy="484.19608" r="3" fill="#fff"></circle><path d="M597.079,562.73993v27.52569H528.11682a13.77119,13.77119,0,0,1-.95849-27.52569q.47908-.01666.95849,0Z" transform="translate(-254 -200.06165)" fill="#f2f2f2"></path><path d="M598.773,590.05389a1.05908,1.05908,0,0,1-1.05865,1.05866H526.88855a14.50394,14.50394,0,0,1-.01746-29.00787h70.84327a1.05869,1.05869,0,1,1,0,2.11737H526.88855a12.38658,12.38658,0,0,0,0,24.77313h70.82581A1.05908,1.05908,0,0,1,598.773,590.05389Z" transform="translate(-254 -200.06165)" fill="#3f3d56"></path><path d="M597.079,569.092H522.97137a.21174.21174,0,1,1-.0039-.42346H597.0791a.21174.21174,0,0,1,0,.42346Z" transform="translate(-254 -200.06165)" fill="#ccc"></path><path d="M597.079,574.17371H522.97137a.21174.21174,0,0,1-.0039-.42347H597.0791a.21174.21174,0,0,1,0,.42347Z" transform="translate(-254 -200.06165)" fill="#ccc"></path><path d="M597.079,579.25537H522.97137a.21174.21174,0,1,1-.0039-.42346H597.0791a.21174.21174,0,0,1,0,.42346Z" transform="translate(-254 -200.06165)" fill="#ccc"></path><path d="M597.079,584.337H522.97137a.21174.21174,0,0,1-.0039-.42347H597.0791a.21174.21174,0,0,1,0,.42347Z" transform="translate(-254 -200.06165)" fill="#ccc"></path><path d="M504.11035,383.08307v-175.5a7.53,7.53,0,0,1,7.52142-7.52142H650.36035a7.53007,7.53007,0,0,1,7.52142,7.52142v175.5a7.53,7.53,0,0,1-7.52142,7.52142H511.63177A7.53,7.53,0,0,1,504.11035,383.08307Zm7.52142-181.35a5.85656,5.85656,0,0,0-5.85,5.85v175.5a5.85658,5.85658,0,0,0,5.85,5.85H650.36035a5.85654,5.85654,0,0,0,5.85-5.85v-175.5a5.85655,5.85655,0,0,0-5.85-5.85Z" transform="translate(-254 -200.06165)" fill="#e6e6e6"></path><path d="M588.77551,280.65936V244.62367a3.7649,3.7649,0,0,1,3.76074-3.76072h30.537a3.76488,3.76488,0,0,1,3.76074,3.76072v36.03569a3.76488,3.76488,0,0,1-3.76074,3.76071h-30.537A3.76489,3.76489,0,0,1,588.77551,280.65936Z" transform="translate(-254 -200.06165)" fill="#6c63ff"></path><path d="M529.43976,297.37363V261.338a3.76491,3.76491,0,0,1,3.76068-3.76071h30.537a3.76491,3.76491,0,0,1,3.76068,3.76071v36.03571a3.76491,3.76491,0,0,1-3.76068,3.76071h-30.537A3.7649,3.7649,0,0,1,529.43976,297.37363Z" transform="translate(-254 -200.06165)" fill="#ccc"></path><path d="M577.0755,348.3522V312.31653a3.76489,3.76489,0,0,1,3.76074-3.76071h30.537a3.76489,3.76489,0,0,1,3.76074,3.76071v36.0357a3.7649,3.7649,0,0,1-3.76074,3.76072h-30.537A3.76492,3.76492,0,0,1,577.0755,348.3522Z" transform="translate(-254 -200.06165)" fill="#ff6584"></path><path d="M759.56293,513.10474H728.143a1.94116,1.94116,0,0,0-.85987.2l-7.93017,3.97a1.44515,1.44515,0,0,0,0,2.66l7.93017,3.97a1.9413,1.9413,0,0,0,.85987.2h31.41992a1.6491,1.6491,0,0,0,1.74023-1.53v-7.94A1.64907,1.64907,0,0,0,759.56293,513.10474Z" transform="translate(-254 -200.06165)" fill="#3f3d56"></path><path d="M761.30316,514.63477v7.93994a1.64909,1.64909,0,0,1-1.74023,1.53h-6.25977v-11h6.25977A1.64909,1.64909,0,0,1,761.30316,514.63477Z" transform="translate(-254 -200.06165)" fill="#6c63ff"></path><path d="M759.32648,453.70453a11.003,11.003,0,0,1,14.8905,6.91461,10.59334,10.59334,0,0,1,.32019,1.435l43.93793,21.78815,10.16833-6.73853,12.6518,14.56531L825.76935,504.2789a11.14849,11.14849,0,0,1-13.30127.513l-44.57916-30.82819a10.50856,10.50856,0,0,1-1.0149.37009,11.00315,11.00315,0,0,1-14.01049-8.56076,10.70426,10.70426,0,0,1-.16254-1.33951A11.03594,11.03594,0,0,1,759.32648,453.70453Z" transform="translate(-254 -200.06165)" fill="#ffb8b8"></path><path d="M850.84106,587.85327H802.8313c0,1.38-49.48,2.5-49.48,2.5a12.86079,12.86079,0,0,0-2.10986,2,12.41033,12.41033,0,0,0-2.9004,8v2a12.50461,12.50461,0,0,0,12.5,12.5h90a12.51087,12.51087,0,0,0,12.5-12.5v-2A12.51738,12.51738,0,0,0,850.84106,587.85327Z" transform="translate(-254 -200.06165)" fill="#3f3d56"></path><rect x="544.61749" y="414.29504" width="13" height="84" fill="#3f3d56"></rect><path d="M761.61749,697.9c0,1.40461,19.69947.54334,44,.54334s44,.86133,44-.54334-19.69946-12.54333-44-12.54333S761.61749,696.49536,761.61749,697.9Z" transform="translate(-254 -200.06165)" fill="#3f3d56"></path><polygon points="519.353 487.993 507.094 487.992 501.261 456.195 519.355 456.196 519.353 487.993" fill="#ffb8b8"></polygon><path d="M776.47986,699.93835l-39.53052-.00146v-.5a15.386,15.386,0,0,1,15.38587-15.38623h.00158l24.1438.001Z" transform="translate(-254 -200.06165)" fill="#2f2e41"></path><path d="M755.0166,668.33667,730.57568,613.529a20.086,20.086,0,0,1,8.81861-25.78418l53.01342-28.42773,24.19117-2.05762,22.31469-2.02832.16089.27246c.20581.34766,5.00366,8.63477,1.7605,17.72168-2.46,6.89258-8.85889,12.27637-19.0188,16.00195-23.71435,8.69532-51.10913,16.127-61.78637,18.918a3.451,3.451,0,0,0-2.21119,1.75977,3.49835,3.49835,0,0,0-.19629,2.79883l22.70655,51.01465a4.49991,4.49991,0,0,1-3.80933,6.02929L759.553,670.98315q-.21606.02052-.43018.02051A4.49694,4.49694,0,0,1,755.0166,668.33667Z" transform="translate(-254 -200.06165)" fill="#2f2e41"></path><polygon points="525.353 487.993 513.094 487.992 507.261 456.195 525.355 456.196 525.353 487.993" fill="#ffb8b8"></polygon><path d="M782.47986,699.93835l-39.53052-.00146v-.5a15.386,15.386,0,0,1,15.38587-15.38623h.00158l24.1438.001Z" transform="translate(-254 -200.06165)" fill="#2f2e41"></path><path d="M762.0166,671.33667,737.57568,616.529a20.086,20.086,0,0,1,8.81861-25.78418l53.01342-28.42773,24.19117-2.05762,22.31469-2.02832.16089.27246c.20581.34766,5.00366,8.63477,1.7605,17.72168-2.46,6.89258-8.85889,12.27637-19.0188,16.00195-23.71435,8.69532-51.10913,16.127-61.78637,18.918a3.451,3.451,0,0,0-2.21119,1.75977,3.49835,3.49835,0,0,0-.19629,2.79883l22.70655,51.01465a4.49991,4.49991,0,0,1-3.80933,6.02929L766.553,673.98315q-.21606.02052-.43018.02051A4.49694,4.49694,0,0,1,762.0166,671.33667Z" transform="translate(-254 -200.06165)" fill="#2f2e41"></path><path d="M749.83453,503.90591a167.5065,167.5065,0,0,1-24.07537-44.93173,4.30257,4.30257,0,0,1,2.03179-5.17938l35.14527-18.8316a4.24664,4.24664,0,0,1,3.72552-.15125,4.31925,4.31925,0,0,1,2.46131,2.884,102.32835,102.32835,0,0,0,22.44561,41.89072,4.318,4.318,0,0,1,1.03827,3.64655,4.24655,4.24655,0,0,1-2.18939,3.01809L755.27222,505.083A4.30257,4.30257,0,0,1,749.83453,503.90591Z" transform="translate(-254 -200.06165)" fill="#ccc"></path><path d="M752.23285,502.10376a1.29853,1.29853,0,0,0,1.62207.335l35.14551-18.832a1.246,1.246,0,0,0,.65259-.897,1.31823,1.31823,0,0,0-.325-1.12793,105.34,105.34,0,0,1-23.10693-43.125,1.31863,1.31863,0,0,0-.75806-.895,1.24684,1.24684,0,0,0-1.11035.0459L729.208,456.43921a1.29827,1.29827,0,0,0-.61963,1.53711A164.507,164.507,0,0,0,752.23285,502.10376Z" transform="translate(-254 -200.06165)" fill="#fff"></path><path d="M866.59253,498.88254l-27.52466,10.45938-6.72-18.66663a11.16828,11.16828,0,0,1,5.002-13.49951h0a11.16824,11.16824,0,0,1,14.26252,2.78446Z" transform="translate(-254 -200.06165)" fill="#6c63ff"></path><path d="M796.5827,572.84259a4.99858,4.99858,0,0,1-2.08349-3.54883c-3.52539-32.90967-1.06983-58.66406,7.50586-78.73486A24.99163,24.99163,0,0,1,818.572,476.37921l22.24951-1.123.11524.05567a26.00517,26.00517,0,0,1,14.2193,27.58835c-7.15625,18.86325-13.14844,38.5029-8.57862,54.34616a5.12184,5.12184,0,0,1-.48388,3.9834,4.88419,4.88419,0,0,1-3.11573,2.30908L800.5993,573.61987a4.96433,4.96433,0,0,1-4.0166-.77734Z" transform="translate(-254 -200.06165)" fill="#6c63ff"></path><circle cx="579.39612" cy="242.32319" r="24.56103" fill="#ffb8b8"></circle><path d="M765.24341,461.83786l-19.1416,8.44955a3.00328,3.00328,0,0,1-3.956-1.533l-.47345-1.07251a3.0033,3.0033,0,0,1,1.533-3.956l19.1416-8.44955a3.00328,3.00328,0,0,1,3.956,1.533l.47345,1.07251A3.00329,3.00329,0,0,1,765.24341,461.83786Z" transform="translate(-254 -200.06165)" fill="#ccc"></path><path d="M772.24341,474.83786l-19.1416,8.44955a3.00328,3.00328,0,0,1-3.956-1.533l-.47345-1.07251a3.0033,3.0033,0,0,1,1.533-3.956l19.1416-8.44955a3.00328,3.00328,0,0,1,3.956,1.533l.47345,1.07251A3.00329,3.00329,0,0,1,772.24341,474.83786Z" transform="translate(-254 -200.06165)" fill="#ccc"></path><path d="M787.00507,525.615l-42.67432-33.666a10.51822,10.51822,0,0,1-1.03613.30567,11.02707,11.02707,0,0,1-8.81787-1.69141,10.91266,10.91266,0,0,1-4.62647-7.7334,11.00126,11.00126,0,0,1,21.63525-3.80078,10.57241,10.57241,0,0,1,.229,1.45215L794.196,504.98856l10.57178-6.08643,11.71094,15.332-16.41406,11.69922A10.9419,10.9419,0,0,1,787.00507,525.615Z" transform="translate(-254 -200.06165)" fill="#ffb8b8"></path><path d="M821.686,519.00885l-24.34869-16.55737,11.44287-16.20685a11.16824,11.16824,0,0,1,13.92865-3.64h0a11.16823,11.16823,0,0,1,5.89441,13.2826Z" transform="translate(-254 -200.06165)" fill="#6c63ff"></path><path d="M824.3913,438.72668c-6.31269,4.3205-14.60144,8.76175-21.04889,4.16074-4.23352-3.02109-5.56739-8.61545-3.85059-13.52487,3.08728-8.82858,11.56946-12.7153,19.68054-15.69458,10.54444-3.87305,22.02576-6.95426,32.91114-4.18054s20.50561,13.31292,18.54058,24.37292c-1.5802,8.89423-9.97,16.29492-8.779,25.24957,1.19867,9.01215,11.3338,13.75589,20.2815,15.36658s18.96039,2.12824,25.39074,8.55521c8.20313,8.19879,6.15467,22.85324-1.56414,31.50955s-19.36683,12.58014-30.65381,15.24756c-14.95453,3.53424-31.129,5.3916-45.33209-.47376s-25.25568-21.65432-21.14124-36.45974c1.73791-6.25382,5.83191-11.5391,9.78851-16.68451s7.96308-10.526,9.47235-16.83887c1.25769-5.26074.32685-11.36868-3.1618-15.31485a4.437,4.437,0,0,1-.59436-5.18643Z" transform="translate(-254 -200.06165)" fill="#2f2e41"></path><path d="M363.0722,558.06012a39.06306,39.06306,0,0,1-37.72113-6.64471c-13.212-11.08918-17.35437-29.35853-20.72485-46.275q-4.98463-25.01779-9.96924-50.03561l20.87168,14.37143c15.00964,10.33508,30.35745,21.00125,40.75006,35.97113s14.929,35.40506,6.57885,51.60318" transform="translate(-254 -200.06165)" fill="#e6e6e6"></path><path d="M361.28809,618.63861c2.11248-15.38745,4.28466-30.97253,2.80288-46.525-1.316-13.8122-5.52987-27.30286-14.10882-38.36426a63.81894,63.81894,0,0,0-16.37384-14.8374c-1.63739-1.03351-3.14441,1.5614-1.51416,2.59039A60.67177,60.67177,0,0,1,356.093,550.4588c5.22488,13.28949,6.06393,27.77612,5.16354,41.89337-.54449,8.53723-1.69846,17.0185-2.86133,25.48889a1.5543,1.5543,0,0,0,1.04767,1.84516,1.50915,1.50915,0,0,0,1.84519-1.04767Z" transform="translate(-254 -200.06165)" fill="#f2f2f2"></path><path d="M340.941,591.4101a28.75525,28.75525,0,0,1-25.05475,12.93133c-12.68314-.602-23.25683-9.4541-32.77515-17.85809L254.95782,561.6261l18.63282-.89172c13.39959-.64124,27.14493-1.23938,39.90759,2.89276s24.53308,14.0769,26.86679,27.28729" transform="translate(-254 -200.06165)" fill="#e6e6e6"></path><path d="M367.25812,627.48413c-10.16773-17.99115-21.96143-37.98627-43.03473-44.377a48.02257,48.02257,0,0,0-18.10108-1.869c-1.92181.16571-1.44192,3.12811.47641,2.96271a44.61373,44.61373,0,0,1,28.88651,7.64233c8.1449,5.544,14.4866,13.25165,19.85413,21.42523,3.28778,5.00659,6.23278,10.22553,9.17834,15.4375.94135,1.66565,3.69278.46332,2.74045-1.2218Z" transform="translate(-254 -200.06165)" fill="#f2f2f2"></path><path d="M383.54974,646.42114A21.77383,21.77383,0,0,0,370.207,628.18433v-10.401H352.76212v10.72875a21.76258,21.76258,0,0,0-12.61622,17.90906l-4.102,47.6836h51.60791Z" transform="translate(-254 -200.06165)" fill="#f2f2f2"></path></svg>