<svg width="32" height="32" xmlns="http://www.w3.org/2000/svg">
 <title/>

 <g>
  <title>background</title>
  <rect fill="none" id="canvas_background" height="402" width="582" y="-1" x="-1"/>
 </g>
 <g>
  <title>Layer 1</title>
  <path fill="#3498db" id="svg_1" d="m16,2a10,10 0 0 0 -10,10c0,5.15 8.26,16.34 9.2,17.6a1,1 0 0 0 1.6,0c0.94,-1.26 9.2,-12.45 9.2,-17.6a10,10 0 0 0 -10,-10zm0,25.3c-2.8,-3.91 -8,-11.87 -8,-15.3a8,8 0 0 1 16,0c0,3.43 -5.2,11.39 -8,15.3z"/>
  <path fill="#3498db" id="svg_2" d="m16,7a5,5 0 1 0 5,5a5,5 0 0 0 -5,-5zm0,8a3,3 0 1 1 3,-3a3,3 0 0 1 -3,3z"/>
 </g>
</svg>